<?xml version="1.0" encoding="UTF-8"?>
<svg version="1.1" viewBox="0 0 302.4 329.51" xmlns="http://www.w3.org/2000/svg">
 <defs>
  <style>.cls-1 {
        fill: #a6a8aa;
      }

      .cls-1, .cls-2 {
        mix-blend-mode: multiply;
      }

      .cls-3 {
        isolation: isolate;
      }

      .cls-4 {
        fill: #272525;
      }

      .cls-5 {
        fill: #d0d1d3;
      }

      .cls-6 {
        fill: #4d4d4d;
      }</style>
 </defs>
 <path d="m269.17 171.33a122.92 122.92 0 0 1-122.92 122.92 122.92 122.92 0 0 1-122.92-122.92 122.92 122.92 0 0 1 122.92-122.92 122.92 122.92 0 0 1 122.92 122.92z" fill="#fff" stroke-width="18.818"/>
 <g transform="translate(12.1 -1.7429)" stroke="#fefefe" stroke-linecap="round" stroke-linejoin="round" stroke-miterlimit="4.3" stroke-width="15" style="isolation:isolate">
  <path d="m213.79 73.64c-5.67-21.41-19.09-32.51-19.66-32.99l-3.31-2.69-5.53 5.53-4.02-6.85-4.44-7.66-3.88 7.94-0.28-3.97-1.04-14.22-7.66 12.05-7.89 12.43-13.33 1.89-26.98-9.64-17.25-6.19 12.15 13.75 11.15 12.66-19 10.68-0.9 0.52-0.57 0.85-39.88 54.91-2.98 4.06 4.25 2.69 29.39 18.52 1.37 0.85 1.61-0.14 16.45-1.65-41.54 59.78-2.55 3.64 3.5 2.79 15.78 12.29 1.13 0.9v2.27l-18.95 14.51-2.32 1.8 0.57 2.93 8.51 41.3 0.24 1.18 0.76 0.95c0.66 0.76 16.82 19.47 57.75 19.47 1.28 0 2.6-0.05 3.97-0.09 10.49-0.29 23.11-4.13 27.96-6.64 1.11-0.57 0.85-0.99 1.55-2.06l2.15-4.94s4.37 4.46 11.57 6.74c7.64 2.41 17.68 2.28 17.68 2.28l-5.62-31.33 3.73-28.02 0.42-2.93-2.46-1.61-7.94-5.34 11.2-27.36 1.28-0.8-0.05-2.74c-0.43-22.12-0.52-45.93-0.05-60.87 0.43 0.9 0.8 1.75 1.23 2.6l5.58 11.91 3.26-12.76c0.19-0.61 1.56-6.29 3.03-14.46h0.05c0.28-1.56 0.57-3.21 0.85-4.91h-0.05c0.24-1.56 0.47-3.21 0.71-4.91 0.05-0.14 0.05-0.33 0.05-0.47 2.03-14.84 3.12-33.65-0.76-48.39zm-110.06-1.18 35.25-1.13-12.48 17.96c-5.06-1.89-11.77-3.64-22.4-3.64-4.3 0-7.85 0.52-10.82 1.23l10.44-14.41zm32.84 47.49c-0.05-0.14-8.08-11.72-12.43-19l3.36-4.82c5.48 7.14 13.47 19.75 15.41 22.87l-2.69 20.93-5.24 0.33c0.71-7.09 2.03-18.71 2.03-18.71l0.09-0.9-0.52-0.71zm-4.35 1.94c-0.33 3.02-1.51 12.81-2.03 18.71l-12 0.8-9.45-18.29 12.48-17.91c3.83 6.24 9.31 14.22 11.01 16.68zm-43.76-28.4c3.78-1.65 8.41-3.12 15.64-3.12 9.07 0 15.07 1.32 19.61 2.93l-3.36 4.82c-7.18-2.55-14.89-3.59-22.45-3.12-4.11 0.28-8.18 1.04-12.14 2.22l2.69-3.73zm-7.6 10.49c5.53-2.41 11.34-3.87 17.39-4.25 6.43-0.43 13.09 0.43 19.33 2.41l-12.85 18.52-37.99 2.79 14.13-19.47zm13.79 39.98-25.28-15.97 35.25-2.6 8.6 16.68zm-20.74 65.5 44-63.28 28.21-1.89 11.67 82.23-64.27-4.49-3.83-0.24zm87.14 22.02 3.45-1.98 0.43 10.25c-3.59 0.71-10.16 1.89-17.15 2.17v-11.39l13.28 0.95zm-18.01-1.23v11.96c-1.51 0.09-3.07 0.14-4.68 0.19v-12.48zm-9.4-0.66v12.85c-1.8 0-3.59-0.05-5.34-0.19v-13.04zm-10.06-0.71v13.04c-2.51-0.24-4.96-0.57-7.23-1.04-13.04-2.74-20.51-7.28-24.01-9.97l0.57-4.11zm-34.88 5.1c3.64 3.07 11.86 8.41 26.7 11.53 5.95 1.23 12.66 1.94 19.23 1.94 9.45 0 15.88-0.66 24.95-1.84l-4.3 13.04c-9.55 2.46-20.46 4.02-31.95 3.31-25.19-1.51-44.75-13.23-49.67-16.45l15.03-11.53zm49.57 71.98c-1.32 0.05-2.6 0.09-3.83 0.09-39.18 0-54.11-17.82-54.11-17.82l-7.8-37.85c3.26 1.89 8.22 4.63 8.6 4.82 9.03 4.49 18.62 7.8 28.5 9.74 12.9 2.5 26.09 2.41 38.99 0.05 2.13-0.38 4.21-0.8 6.29-1.28l4.91 38.8c-6.19 1.89-13.37 3.21-21.55 3.45zm25.9-6.57-5.03-37.74c0.06-0.02 5.03-16.03 5.03-16.03l4.58 41.59-4.58 12.19zm41.87-196.5 5.48-0.05c-0.05 1.61-0.14 3.21-0.28 4.82l-5.24-0.09c-0.05 1.61-0.09 3.17-0.14 4.63l5.01 0.24c-0.14 1.61-0.28 3.21-0.47 4.77l-4.82-0.38c-0.14 1.61-0.28 3.12-0.43 4.58l4.63 0.52c-0.24 1.65-0.42 3.21-0.71 4.77l-4.54-0.76c-0.28 1.61-0.52 3.12-0.85 4.54l4.63 0.9c-1.51 8.55-2.98 14.22-2.98 14.22s-2.65-5.62-4.96-10.49c-0.8-19.56 3.83-41.07-3.36-59.83 5.1 19.23-0.66 39.18-1.28 58.79-1.65 18-0.57 71.92-0.57 71.92l-16.02 9.64-16.73 9.64-11.95-83.83c-0.14-1.23-1.28-2.08-2.5-2.03l-2.98 0.19 2.84-21.69-0.47-0.71c-0.42-0.76-10.68-17.25-17.01-25.19l15.22-21.88c0.52-0.76 0.57-1.7 0.14-2.5-0.43-0.76-1.28-1.28-2.13-1.23l-33.08 1.09 18.76-10.54-15.03-17.06 28.07 10.02 16.63-2.32 9.03-14.27 1.61 21.45 7.65-15.78 7.09 12.15 6.85-6.8s3.21 2.65 7.14 7.84l-5.53 4.16c0.9 1.18 1.8 2.41 2.69 3.73l5.58-3.88c0.85 1.32 1.65 2.74 2.5 4.25l-5.62 3.36c0.76 1.23 1.46 2.5 2.13 3.88l5.62-2.84c0.66 1.46 1.28 2.98 1.84 4.58l-5.62 2.27c0.52 1.32 1.04 2.69 1.47 4.11l5.62-1.75c0.09 0.28 0.14 0.52 0.24 0.76 0.33 1.32 0.61 2.65 0.85 4.02l-5.58 1.23c0.28 1.37 0.57 2.84 0.76 4.35l5.58-0.76c0.24 1.56 0.38 3.17 0.52 4.82l-5.67 0.33 0.19 4.63 5.72-0.19c0.05 1.61 0.09 3.21 0.05 4.82l-5.62 0.09c0.05 1.65 0.05 3.21 0.05 4.73z" stroke="#fefefe" stroke-linecap="round" stroke-linejoin="round" stroke-miterlimit="4.3" stroke-width="15"/>
  <path class="cls-5" d="m196.89 303.78-9.75-66.01 10.98-28.95 7.49-0.61 8.23 55.42-3.17 40.15z" fill="#d0d1d3"/>
  <path d="m207.65 205.76-11.19 0.91-11.73 30.92 10.09 68.29 4.5 0.17 13.55 0.17 3.37-42.58-8.6-57.88zm2.21 78.61-7.72-46.75 3.15-15.61 6.21 41.8-1.63 20.56zm-10.04-73.23 2.88-0.23-4.91 24.35-7.18 0.16zm-9.93 29.02 7.85-0.17 10.17 61.52h-8.95l-9.06-61.34z" stroke="#fefefe" stroke-linecap="round" stroke-linejoin="round" stroke-miterlimit="4.3" stroke-width="15"/>
 </g>
 <g class="cls-3" transform="translate(12.248 -1.1665)">
  <g id="OUTLINES">
   <path class="cls-5" d="m209.2 74.84c-5.33-20.14-18.07-30.51-18.07-30.51l-6.81 6.81-7.11-12.14-7.66 15.79-1.58-21.48-9.06 14.26-16.62 2.35-28.09-10.03 15.05 17.05-24.07 13.54-39.87 54.92 29.36 18.52 26.67-2.65-47.41 68.16 15.76 12.33 3.87 0.26-1.22 9.17-20.48 15.7 8.5 41.33s15.89 18.94 57.94 17.73c8.09-0.23 15.71-0.59 21.81-2.71 3.33-1.16 5.99-3.35 8.61-4.93 0.54-0.33 0.7-2.25 1.25-2.51 0.6-0.28 1.56 1.06 2.13 0.78 9.97-4.97 15.21-9.58 15.21-9.58l5.5-40.94-16.08-10.75s-1.76-9.12-3.21-16.29l21.69-13.01s-1.54-74.96 1.74-77.6c0.69 0.69 8.44 17.21 8.44 17.21s11.08-43.46 3.85-70.78z"/>
  </g>
  <g id="COLOUR">
   <g id="FINAL_colour_darkGold">
    <path class="cls-1" d="m156.37 259.05c-2.88 2.02-20.81 7.47-46.96 2.97-16.3-2.81-35.1-14.11-38.83-16.57l17.79-13.67c5.76 6.48 19.58 11.88 31.93 13.83 18.71 2.95 38.45 0.16 42.43-1.86l-6.37 15.31z"/>
    <path class="cls-1" d="m136.8 120.5c-0.1-0.1-12.78-19.41-12.78-19.41l3.44-4.94c5.61 7.31 13.52 19.75 15.51 22.94l-2.41 21.19-5.97 0.31c0.73-7.26 2.21-20.1 2.21-20.1z"/>
    <path class="cls-1" d="m88.26 93.58c3.97-1.74 8.53-3.34 16.13-3.34 9.34 0 14.86 1.32 19.5 2.96l-3.4 5.09c-7.36-2.57-14.36-3.61-22.16-3.13-4.31 0.29-8.55 0.83-12.72 2.09l2.64-3.67z"/>
    <path class="cls-1" d="m147.29 143.47 12.35 84.9-70.06-5.55-17.25-13.11 43.53-63.82z" fill="#a6a8aa" style="mix-blend-mode:multiply"/>
    <path class="cls-1" d="m93.59 144.31-26.82-16.92 37.78-2.78 9.07 17.65z" fill="#a6a8aa" style="mix-blend-mode:multiply"/>
    <g class="cls-2">
     <path class="cls-1" d="m124.58 227.71-0.43 15.07c-16.46-2.2-27.63-8.57-32.82-12.21l0.62-4.64z"/>
     <path class="cls-1" d="m164.99 240.75-5.18 1.65-12.8 1.81v-14.3l14.13 0.94 3.83-1.63z" fill="#a6a8aa"/>
    </g>
    <path class="cls-1" d="m205.75 148.79-6.17-14.11c0-24.49 2.21-41.73-2.55-59.36-3.64-13.48-12.61-23.98-12.76-24.16l7.2-7.31c0.73 0.87 11.69 7.73 19.27 32.6 5.77 18.92-3.02 66.65-4.99 72.35z"/>
   </g>
  </g>
  <g id="NAILS">
   <path class="cls-4" d="m169.21 216.02c0 2.09-1.34 3.7-3.01 3.7s-3.01-1.61-3.01-3.7 1.34-3.65 3.01-3.65 3.01 1.61 3.01 3.65z"/>
   <path class="cls-4" d="m193.49 202.12c0 1.68-1.12 2.98-2.52 2.98s-2.47-1.31-2.47-2.98 1.08-2.98 2.47-2.98 2.52 1.31 2.52 2.98z"/>
   <path class="cls-4" d="m95.73 216.79c0 0.91-0.39 1.79-1.14 2.35-0.61 0.52-1.36 0.8-2.19 0.8h-0.31c-1.75-0.16-3.11-1.59-3.11-3.22 0-1.71 1.4-3.1 3.19-3.18 0.92-0.04 1.79 0.28 2.45 0.83 0.7 0.64 1.09 1.51 1.09 2.43z"/>
   <path class="cls-4" d="m155.01 219.92c0 0.98-0.47 1.88-1.22 2.52-0.66 0.55-1.5 0.85-2.35 0.85-0.09 0-0.23 0-0.33-0.04-1.88-0.13-3.33-1.66-3.33-3.45s1.5-3.28 3.38-3.37c0.99-0.04 1.92 0.26 2.67 0.9 0.75 0.68 1.17 1.62 1.17 2.6z"/>
   <path class="cls-4" d="m154.05 270.34c0 0.98-0.47 1.88-1.22 2.52-0.66 0.55-1.5 0.85-2.35 0.85-0.09 0-0.23 0-0.33-0.04-1.88-0.13-3.33-1.66-3.33-3.45s1.5-3.28 3.38-3.37c0.99-0.04 1.92 0.26 2.67 0.9 0.75 0.68 1.17 1.62 1.17 2.6z"/>
   <path class="cls-4" d="m81.67 260.37c0 0.82-0.36 1.44-0.93 1.78-0.49 0.29-1.12 0.34-1.77 0.16-0.07-0.02-0.18-0.05-0.26-0.1-1.48-0.5-2.82-2.11-3.05-3.71-0.25-1.74 0.92-2.86 2.62-2.41 0.88 0.23 1.72 0.79 2.39 1.63 0.65 0.84 1 1.8 1 2.66z"/>
   <path class="cls-4" d="m86.66 287.06c0 0.82-0.36 1.44-0.93 1.78-0.49 0.29-1.12 0.34-1.77 0.16-0.07-0.02-0.18-0.05-0.26-0.1-1.48-0.5-2.82-2.11-3.05-3.71-0.25-1.74 0.92-2.86 2.62-2.41 0.88 0.23 1.72 0.79 2.39 1.63 0.65 0.84 1 1.8 1 2.66z"/>
   <path class="cls-4" d="m157.99 298.4c0 0.98-0.47 1.88-1.22 2.52-0.66 0.55-1.5 0.85-2.35 0.85-0.09 0-0.23 0-0.33-0.04-1.88-0.13-3.33-1.66-3.33-3.45s1.5-3.28 3.38-3.37c0.99-0.04 1.92 0.26 2.67 0.9 0.75 0.68 1.17 1.62 1.17 2.6z"/>
  </g>
  <g id="DOOR">
   <g id="FINAL_doorShadow">
    <path d="m213.79 73.64c-5.67-21.41-19.09-32.51-19.66-32.99l-3.31-2.69-5.53 5.53-4.02-6.85-4.44-7.66-3.88 7.94-0.28-3.97-1.04-14.22-7.66 12.05-7.89 12.43-13.33 1.89-26.98-9.64-17.25-6.19 12.15 13.75 11.15 12.66-19 10.68-0.9 0.52-0.57 0.85-39.88 54.91-2.98 4.06 4.25 2.69 29.39 18.52 1.37 0.85 1.61-0.14 16.45-1.65-41.54 59.78-2.55 3.64 3.5 2.79 15.78 12.29 1.13 0.9v2.27l-18.95 14.51-2.32 1.8 0.57 2.93 8.51 41.3 0.24 1.18 0.76 0.95c0.66 0.76 16.82 19.47 57.75 19.47 1.28 0 2.6-0.05 3.97-0.09 10.49-0.29 23.11-4.13 27.96-6.64 1.11-0.57 0.85-0.99 1.55-2.06l2.15-4.94s4.37 4.46 11.57 6.74c7.64 2.41 17.68 2.28 17.68 2.28l-5.62-31.33 3.73-28.02 0.42-2.93-2.46-1.61-7.94-5.34 11.2-27.36 1.28-0.8-0.05-2.74c-0.43-22.12-0.52-45.93-0.05-60.87 0.43 0.9 0.8 1.75 1.23 2.6l5.58 11.91 3.26-12.76c0.19-0.61 1.56-6.29 3.03-14.46h0.05c0.28-1.56 0.57-3.21 0.85-4.91h-0.05c0.24-1.56 0.47-3.21 0.71-4.91 0.05-0.14 0.05-0.33 0.05-0.47 2.03-14.84 3.12-33.65-0.76-48.39zm-110.06-1.18 35.25-1.13-12.48 17.96c-5.06-1.89-11.77-3.64-22.4-3.64-4.3 0-7.85 0.52-10.82 1.23l10.44-14.41zm32.84 47.49c-0.05-0.14-8.08-11.72-12.43-19l3.36-4.82c5.48 7.14 13.47 19.75 15.41 22.87l-2.69 20.93-5.24 0.33c0.71-7.09 2.03-18.71 2.03-18.71l0.09-0.9-0.52-0.71zm-4.35 1.94c-0.33 3.02-1.51 12.81-2.03 18.71l-12 0.8-9.45-18.29 12.48-17.91c3.83 6.24 9.31 14.22 11.01 16.68zm-43.76-28.4c3.78-1.65 8.41-3.12 15.64-3.12 9.07 0 15.07 1.32 19.61 2.93l-3.36 4.82c-7.18-2.55-14.89-3.59-22.45-3.12-4.11 0.28-8.18 1.04-12.14 2.22l2.69-3.73zm-7.6 10.49c5.53-2.41 11.34-3.87 17.39-4.25 6.43-0.43 13.09 0.43 19.33 2.41l-12.85 18.52-37.99 2.79 14.13-19.47zm13.79 39.98-25.28-15.97 35.25-2.6 8.6 16.68zm-20.74 65.5 44-63.28 28.21-1.89 11.67 82.23-64.27-4.49-3.83-0.24zm87.14 22.02 3.45-1.98 0.43 10.25c-3.59 0.71-10.16 1.89-17.15 2.17v-11.39l13.28 0.95zm-18.01-1.23v11.96c-1.51 0.09-3.07 0.14-4.68 0.19v-12.48zm-9.4-0.66v12.85c-1.8 0-3.59-0.05-5.34-0.19v-13.04zm-10.06-0.71v13.04c-2.51-0.24-4.96-0.57-7.23-1.04-13.04-2.74-20.51-7.28-24.01-9.97l0.57-4.11zm-34.88 5.1c3.64 3.07 11.86 8.41 26.7 11.53 5.95 1.23 12.66 1.94 19.23 1.94 9.45 0 15.88-0.66 24.95-1.84l-4.3 13.04c-9.55 2.46-20.46 4.02-31.95 3.31-25.19-1.51-44.75-13.23-49.67-16.45l15.03-11.53zm49.57 71.98c-1.32 0.05-2.6 0.09-3.83 0.09-39.18 0-54.11-17.82-54.11-17.82l-7.8-37.85c3.26 1.89 8.22 4.63 8.6 4.82 9.03 4.49 18.62 7.8 28.5 9.74 12.9 2.5 26.09 2.41 38.99 0.05 2.13-0.38 4.21-0.8 6.29-1.28l4.91 38.8c-6.19 1.89-13.37 3.21-21.55 3.45zm25.9-6.57-5.03-37.74c0.06-0.02 5.03-16.03 5.03-16.03l4.58 41.59-4.58 12.19zm41.87-196.5 5.48-0.05c-0.05 1.61-0.14 3.21-0.28 4.82l-5.24-0.09c-0.05 1.61-0.09 3.17-0.14 4.63l5.01 0.24c-0.14 1.61-0.28 3.21-0.47 4.77l-4.82-0.38c-0.14 1.61-0.28 3.12-0.43 4.58l4.63 0.52c-0.24 1.65-0.42 3.21-0.71 4.77l-4.54-0.76c-0.28 1.61-0.52 3.12-0.85 4.54l4.63 0.9c-1.51 8.55-2.98 14.22-2.98 14.22s-2.65-5.62-4.96-10.49c-0.8-19.56 3.83-41.07-3.36-59.83 5.1 19.23-0.66 39.18-1.28 58.79-1.65 18-0.57 71.92-0.57 71.92l-16.02 9.64-16.73 9.64-11.95-83.83c-0.14-1.23-1.28-2.08-2.5-2.03l-2.98 0.19 2.84-21.69-0.47-0.71c-0.42-0.76-10.68-17.25-17.01-25.19l15.22-21.88c0.52-0.76 0.57-1.7 0.14-2.5-0.43-0.76-1.28-1.28-2.13-1.23l-33.08 1.09 18.76-10.54-15.03-17.06 28.07 10.02 16.63-2.32 9.03-14.27 1.61 21.45 7.65-15.78 7.09 12.15 6.85-6.8s3.21 2.65 7.14 7.84l-5.53 4.16c0.9 1.18 1.8 2.41 2.69 3.73l5.58-3.88c0.85 1.32 1.65 2.74 2.5 4.25l-5.62 3.36c0.76 1.23 1.46 2.5 2.13 3.88l5.62-2.84c0.66 1.46 1.28 2.98 1.84 4.58l-5.62 2.27c0.52 1.32 1.04 2.69 1.47 4.11l5.62-1.75c0.09 0.28 0.14 0.52 0.24 0.76 0.33 1.32 0.61 2.65 0.85 4.02l-5.58 1.23c0.28 1.37 0.57 2.84 0.76 4.35l5.58-0.76c0.24 1.56 0.38 3.17 0.52 4.82l-5.67 0.33 0.19 4.63 5.72-0.19c0.05 1.61 0.09 3.21 0.05 4.82l-5.62 0.09c0.05 1.65 0.05 3.21 0.05 4.73z"/>
    <path class="cls-5" d="m187.14 237.77 10.98-28.95 7.49-0.61 8.23 55.42-3.17 40.15h-13.78z" fill="#d0d1d3"/>
    <path d="m207.65 205.76-11.19 0.91-11.73 30.92 10.09 68.29 4.5 0.17 13.55 0.17 3.37-42.58-8.6-57.88zm2.21 78.61-7.72-46.75 3.15-15.61 6.21 41.8-1.63 20.56zm-10.04-73.23 2.88-0.23-4.91 24.35-7.18 0.16zm-9.93 29.02 7.85-0.17 10.17 61.52h-8.95l-9.06-61.34z"/>
   </g>
   <g id="FINAL_doorFront">
    <path d="m199.98 270.84-2.69 0.36c-0.65 0.09-1.26-0.36-1.36-1l-1.32-8.24c-0.11-0.71 0.36-1.34 1.06-1.4l2.88-0.23c0.67-0.05 1.29 0.47 1.38 1.17l1.04 8.06c0.08 0.63-0.36 1.21-0.99 1.29z"/>
    <path class="cls-6" d="m197 269.14-0.85-5.56 2.69-0.26 0.75 5.5z" fill="#4d4d4d"/>
   </g>
  </g>
 </g>
</svg>
